<svg width="707.7px" height="129.2px" xmlns="http://www.w3.org/2000/svg" viewBox="-103.83749999999998 10.400000000000006 707.675 129.2" style="background: none" preserveAspectRatio="xMidYMid"><defs><linearGradient id="editing-shiny-gradient" x1="0.04322727117869957" x2="0.9567727288213004" y1="0.2966316784620999" y2="0.7033683215379001" gradientUnits="objectBoundingBox"><stop offset="0" stop-color="#ab3259"></stop><stop offset="0.5" stop-color="#dcc75b"></stop><stop offset="1" stop-color="#e8c7ae"></stop></linearGradient><linearGradient id="editing-shiny-gradient2" x1="0" x2="0" y1="0" y2="1"><stop offset="0.2" stop-color="#ffffff" stop-opacity="0.8"></stop><stop offset="0.8" stop-color="#ffffff" stop-opacity="0"></stop></linearGradient><filter id="editing-shiny2" x="-100%" y="-100%" width="300%" height="300%"><feMorphology operator="erode" radius="2"></feMorphology></filter><filter id="editing-shiny" x="-100%" y="-100%" width="300%" height="300%"><feFlood flood-color="#fff" result="flood"></feFlood><feConvolveMatrix in="SourceGraphic" result="conv" order="8,8" divisor="1" kernelMatrix="0 0 0 0 0 0 0 0 0 0 0 1 1 0 0 0 0 0 0 1 1 0 0 0 0 0 1 0 0 1 0 0 0 0 1 0 0 1 0 0 0 1 0 0 0 0 1 0 0 1 1 0 0 1 1 0 0 0 0 1 1 0 0 0 "></feConvolveMatrix><feOffset dx="0" dy="4" in="conv" result="offset"></feOffset><feComposite operator="in" in="flood" in2="offset" result="comp"></feComposite><feGaussianBlur in="offset" stdDeviation="3" result="shadow"></feGaussianBlur><feColorMatrix in="shadow" type="matrix" values="0.7 0 0 0 0  0 0.7 0 0 0  0 0 0.7 0 0  0 0 0 0.3 0" result="dark-shadow"></feColorMatrix><feOffset dx="0" dy="4" in="dark-shadow" result="offset-shadow"></feOffset><feOffset dx="0" dy="2" in="conv" result="offset-2"></feOffset><feComposite operator="out" in="offset" in2="offset-2" result="edge-diff"></feComposite><feGaussianBlur in="edge-diff" stdDeviation="1" result="edge-blur"></feGaussianBlur><feColorMatrix in="edge-blur" result="edge-shadow" type="matrix" values="0 0 0 0 0  0 0 0 0 0  0 0 0 0 0  0 0 0 0.5 0"></feColorMatrix><feComposite operator="in" in="edge-shadow" in2="offset" result="edge-shadow-in"></feComposite><feOffset dx="0" dy="1" in="edge-shadow-in" result="edge-shadow-final"></feOffset><feMerge result="out"><feMergeNode in="offset-shadow"></feMergeNode><feMergeNode in="comp"></feMergeNode><feMergeNode in="edge-shadow-final"></feMergeNode><feMergeNode in="SourceGraphic"></feMergeNode></feMerge></filter></defs><g filter="url(#editing-shiny)"><g transform="translate(-2.4,106.8)"><path d="M 16.6 -17.2 L 1.6 -17.2 L 10.3 -62.7 L 25.5 -62.7 L 16.6 -17.2 Z M 76.7 -15.8 L 76.7 -15.8 L 76.7 -15.8 Q 68.4 -15.8 68.4 -22.3 L 68.4 -22.3 L 68.4 -22.3 Q 68.4 -25.1 69.6 -30.6 L 69.6 -30.6 L 69.6 -30.6 Q 70.8 -36.1 71.2 -38.3 L 71.2 -38.3 L 71.2 -38.3 Q 72.1 -43.4 72.1 -44.9 L 72.1 -44.9 L 72.1 -44.9 Q 72.1 -48.5 69.5 -48.5 L 69.5 -48.5 L 69.5 -48.5 Q 67.8 -48.5 66.1 -46.1 L 66.1 -46.1 L 66.1 -46.1 Q 64.5 -43.7 63.7 -38.9 L 63.7 -38.9 L 59.5 -17.2 L 46 -15.8 L 49.7 -34.6 L 49.7 -34.6 Q 50.3 -37.7 50.9 -41.2 L 50.9 -41.2 L 50.9 -41.2 Q 51.4 -44.7 51.4 -45.3 L 51.4 -45.3 L 51.4 -45.3 Q 51.4 -48.5 49.1 -48.5 L 49.1 -48.5 L 49.1 -48.5 Q 47.5 -48.5 45.8 -46.1 L 45.8 -46.1 L 45.8 -46.1 Q 44.1 -43.8 43.1 -38.9 L 43.1 -38.9 L 38.9 -17.2 L 25.3 -15.8 L 32.5 -52.4 L 43.8 -53.8 L 42.6 -46.8 L 42.6 -46.8 Q 44.4 -50.5 47.7 -52.2 L 47.7 -52.2 L 47.7 -52.2 Q 51 -53.8 56.2 -53.8 L 56.2 -53.8 L 56.2 -53.8 Q 59.2 -53.8 61.1 -52.3 L 61.1 -52.3 L 61.1 -52.3 Q 63 -50.9 63.7 -48.5 L 63.7 -48.5 L 63.7 -48.5 Q 64.8 -50.9 67.8 -52.4 L 67.8 -52.4 L 67.8 -52.4 Q 70.8 -53.8 74.5 -53.8 L 74.5 -53.8 L 74.5 -53.8 Q 78.2 -53.8 80 -53 L 80 -53 L 80 -53 Q 81.9 -52.2 83 -50.9 L 83 -50.9 L 83 -50.9 Q 84.8 -48.5 84.8 -44 L 84.8 -44 L 84.8 -44 Q 84.8 -39.7 83 -30.7 L 83 -30.7 L 83 -30.7 Q 82 -26.2 82 -24.6 L 82 -24.6 L 82 -24.6 Q 82 -23 82.9 -22 L 82.9 -22 L 82.9 -22 Q 83.9 -21.1 85.3 -20.9 L 85.3 -20.9 L 85.3 -20.9 Q 84.6 -18.6 82.2 -17.2 L 82.2 -17.2 L 82.2 -17.2 Q 79.8 -15.8 76.7 -15.8 Z M 93.6 -19.3 L 93.6 -19.3 L 93.6 -19.3 Q 91.9 -21.1 91.2 -23.9 L 91.2 -23.9 L 91.2 -23.9 Q 90.5 -26.7 90.5 -31.4 L 90.5 -31.4 L 90.5 -31.4 Q 90.5 -36 92.1 -40.2 L 92.1 -40.2 L 92.1 -40.2 Q 93.7 -44.4 96.6 -47.4 L 96.6 -47.4 L 96.6 -47.4 Q 102.5 -53.8 112.3 -53.8 L 112.3 -53.8 L 112.3 -53.8 Q 115.8 -53.8 118.4 -52.6 L 118.4 -52.6 L 130.2 -53.8 L 125.1 -26.9 L 125.1 -26.9 Q 124.9 -26 124.9 -24.5 L 124.9 -24.5 L 124.9 -24.5 Q 124.9 -23 125.8 -22 L 125.8 -22 L 125.8 -22 Q 126.7 -21.1 128.1 -20.9 L 128.1 -20.9 L 128.1 -20.9 Q 127.4 -18.6 124.9 -17.2 L 124.9 -17.2 L 124.9 -17.2 Q 122.4 -15.8 119.5 -15.8 L 119.5 -15.8 L 119.5 -15.8 Q 116.7 -15.8 114.8 -16.9 L 114.8 -16.9 L 114.8 -16.9 Q 112.9 -18 112.4 -19.8 L 112.4 -19.8 L 112.4 -19.8 Q 111.3 -18 108.9 -16.9 L 108.9 -16.9 L 108.9 -16.9 Q 106.6 -15.8 103.4 -15.8 L 103.4 -15.8 L 103.4 -15.8 Q 100.3 -15.8 97.7 -16.7 L 97.7 -16.7 L 97.7 -16.7 Q 95.2 -17.5 93.6 -19.3 Z M 108.1 -47.3 L 108.1 -47.3 L 108.1 -47.3 Q 107.3 -46 106.6 -43.9 L 106.6 -43.9 L 106.6 -43.9 Q 106 -41.8 104.8 -36.2 L 104.8 -36.2 L 104.8 -36.2 Q 103.7 -30.6 103.7 -26.6 L 103.7 -26.6 L 103.7 -26.6 Q 103.7 -22.6 104.3 -21.4 L 104.3 -21.4 L 104.3 -21.4 Q 104.9 -20.2 106 -20.2 L 106 -20.2 L 106 -20.2 Q 108.2 -20.2 109.9 -22.3 L 109.9 -22.3 L 109.9 -22.3 Q 111.5 -24.5 112.1 -28.2 L 112.1 -28.2 L 115.8 -48.4 L 115.8 -48.4 Q 114.3 -49.6 112.6 -49.6 L 112.6 -49.6 L 112.6 -49.6 Q 110.9 -49.6 109.9 -49.1 L 109.9 -49.1 L 109.9 -49.1 Q 108.9 -48.5 108.1 -47.3 Z M 138.5 -46 L 138.5 -46 L 138.5 -46 Q 140.9 -49.4 144.4 -51.6 L 144.4 -51.6 L 144.4 -51.6 Q 148 -53.8 152.3 -53.8 L 152.3 -53.8 L 152.3 -53.8 Q 156.7 -53.8 158.7 -52.4 L 158.7 -52.4 L 172.3 -53.8 L 167.6 -27.3 L 167.6 -27.3 Q 165.2 -13.8 160.1 -8.4 L 160.1 -8.4 L 160.1 -8.4 Q 155.2 -3.4 145.6 -3.4 L 145.6 -3.4 L 145.6 -3.4 Q 138.4 -3.4 134.2 -5.7 L 134.2 -5.7 L 134.2 -5.7 Q 130.1 -8 130.1 -11.8 L 130.1 -11.8 L 130.1 -11.8 Q 130.1 -14.6 132.2 -16.2 L 132.2 -16.2 L 132.2 -16.2 Q 134.4 -17.8 137.7 -17.8 L 137.7 -17.8 L 137.7 -17.8 Q 140.6 -17.8 142.8 -16.5 L 142.8 -16.5 L 142.8 -16.5 Q 144.1 -15.8 144.7 -14.9 L 144.7 -14.9 L 144.7 -14.9 Q 143.1 -13.5 143.1 -11.2 L 143.1 -11.2 L 143.1 -11.2 Q 143.1 -8.2 145.9 -8.2 L 145.9 -8.2 L 145.9 -8.2 Q 150.5 -8.2 153.2 -19.1 L 153.2 -19.1 L 153.2 -19.1 Q 153.9 -22.1 154.5 -25.1 L 154.5 -25.1 L 154.5 -25.1 Q 151.4 -21.3 144.4 -21.3 L 144.4 -21.3 L 144.4 -21.3 Q 139.5 -21.3 136.7 -23.6 L 136.7 -23.6 L 136.7 -23.6 Q 133.8 -26 133.8 -31.5 L 133.8 -31.5 L 133.8 -31.5 Q 133.8 -34.9 135 -38.8 L 135 -38.8 L 135 -38.8 Q 136.2 -42.7 138.5 -46 Z M 147.5 -31.3 L 147.5 -31.3 L 147.5 -31.3 Q 147.5 -26.6 149.9 -26.6 L 149.9 -26.6 L 149.9 -26.6 Q 151.6 -26.6 153.2 -28.4 L 153.2 -28.4 L 153.2 -28.4 Q 154.4 -29.8 154.9 -32 L 154.9 -32 L 158.4 -49.7 L 158.4 -49.7 Q 158.1 -49.8 157.7 -49.9 L 157.7 -49.9 L 157.7 -49.9 Q 157 -50.2 156.1 -50.2 L 156.1 -50.2 L 156.1 -50.2 Q 151.9 -50.2 149.4 -43.3 L 149.4 -43.3 L 149.4 -43.3 Q 147.5 -37.9 147.5 -31.3 Z M 202.9 -28.9 L 202.9 -28.9 L 202.9 -28.9 Q 204.6 -27.7 204.6 -25.1 L 204.6 -25.1 L 204.6 -25.1 Q 204.6 -22.5 203.3 -20.9 L 203.3 -20.9 L 203.3 -20.9 Q 202 -19.2 199.9 -18.1 L 199.9 -18.1 L 199.9 -18.1 Q 195.4 -15.8 190.7 -15.8 L 190.7 -15.8 L 190.7 -15.8 Q 185.9 -15.8 183.1 -16.9 L 183.1 -16.9 L 183.1 -16.9 Q 180.3 -17.9 178.5 -19.8 L 178.5 -19.8 L 178.5 -19.8 Q 174.8 -23.5 174.8 -30.2 L 174.8 -30.2 L 174.8 -30.2 Q 174.8 -40.6 180.5 -46.9 L 180.5 -46.9 L 180.5 -46.9 Q 186.5 -53.8 197.1 -53.8 L 197.1 -53.8 L 197.1 -53.8 Q 203.7 -53.8 206.9 -51 L 206.9 -51 L 206.9 -51 Q 209.3 -48.9 209.3 -45.6 L 209.3 -45.6 L 209.3 -45.6 Q 209.3 -33.4 188.3 -33.4 L 188.3 -33.4 L 188.3 -33.4 Q 188.1 -31.6 188.1 -30.1 L 188.1 -30.1 L 188.1 -30.1 Q 188.1 -26.9 189.5 -25.7 L 189.5 -25.7 L 189.5 -25.7 Q 190.9 -24.5 193.5 -24.5 L 193.5 -24.5 L 193.5 -24.5 Q 196.1 -24.5 198.9 -25.7 L 198.9 -25.7 L 198.9 -25.7 Q 201.7 -26.9 202.9 -28.9 Z M 188.8 -36.4 L 188.8 -36.4 L 188.8 -36.4 Q 193.7 -36.4 196.6 -39.4 L 196.6 -39.4 L 196.6 -39.4 Q 199.4 -42.3 199.4 -46.9 L 199.4 -46.9 L 199.4 -46.9 Q 199.4 -48.5 198.8 -49.4 L 198.8 -49.4 L 198.8 -49.4 Q 198.2 -50.3 197 -50.3 L 197 -50.3 L 197 -50.3 Q 195.9 -50.3 194.9 -49.8 L 194.9 -49.8 L 194.9 -49.8 Q 193.9 -49.4 192.8 -47.8 L 192.8 -47.8 L 192.8 -47.8 Q 190.3 -44.4 188.8 -36.4 Z M 232.3 -41.4 L 232.3 -41.4 L 232.3 -41.4 Q 233.3 -44 233.3 -46.2 L 233.3 -46.2 L 233.3 -46.2 Q 233.3 -50.3 229.9 -50.3 L 229.9 -50.3 L 229.9 -50.3 Q 228.2 -50.3 226.8 -48.7 L 226.8 -48.7 L 226.8 -48.7 Q 225.4 -47.2 225.4 -45.2 L 225.4 -45.2 L 225.4 -45.2 Q 225.4 -43.8 226.5 -42.7 L 226.5 -42.7 L 226.5 -42.7 Q 228.1 -41.2 232.2 -38.7 L 232.2 -38.7 L 232.2 -38.7 Q 236.2 -36.2 237.8 -34.2 L 237.8 -34.2 L 237.8 -34.2 Q 239.3 -32.2 239.3 -29.4 L 239.3 -29.4 L 239.3 -29.4 Q 239.3 -26.6 238 -24 L 238 -24 L 238 -24 Q 236.6 -21.5 234.2 -19.7 L 234.2 -19.7 L 234.2 -19.7 Q 229.1 -15.8 220.8 -15.8 L 220.8 -15.8 L 220.8 -15.8 Q 216.3 -15.8 212.8 -18.2 L 212.8 -18.2 L 212.8 -18.2 Q 209.4 -20.4 209.4 -23.1 L 209.4 -23.1 L 209.4 -23.1 Q 209.4 -25.8 211.4 -27.4 L 211.4 -27.4 L 211.4 -27.4 Q 213.3 -29 216.2 -29 L 216.2 -29 L 216.2 -29 Q 219.1 -29 220.9 -27.9 L 220.9 -27.9 L 220.9 -27.9 Q 220 -25.6 220 -24.1 L 220 -24.1 L 220 -24.1 Q 220 -19.6 223.9 -19.6 L 223.9 -19.6 L 223.9 -19.6 Q 225.5 -19.6 226.6 -20.6 L 226.6 -20.6 L 226.6 -20.6 Q 227.7 -21.6 227.7 -23.4 L 227.7 -23.4 L 227.7 -23.4 Q 227.7 -26.9 221.8 -30.7 L 221.8 -30.7 L 221.8 -30.7 Q 217 -33.8 215.9 -35.1 L 215.9 -35.1 L 215.9 -35.1 Q 214 -37.3 214 -40 L 214 -40 L 214 -40 Q 214 -42.8 215.3 -45.4 L 215.3 -45.4 L 215.3 -45.4 Q 216.6 -48 219 -49.9 L 219 -49.9 L 219 -49.9 Q 224.1 -53.8 232.8 -53.8 L 232.8 -53.8 L 232.8 -53.8 Q 237.3 -53.8 240 -52 L 240 -52 L 240 -52 Q 242.6 -50.2 242.6 -47.2 L 242.6 -47.2 L 242.6 -47.2 Q 242.6 -44.1 240.8 -42.4 L 240.8 -42.4 L 240.8 -42.4 Q 239 -40.7 235.7 -40.7 L 235.7 -40.7 L 235.7 -40.7 Q 233.4 -40.7 232.3 -41.4 Z M 287.4 -39.4 L 301.3 -40.7 L 301.3 -40.7 Q 296.3 -29.8 296.3 -17.1 L 296.3 -17.1 L 296.3 -17.1 Q 294.5 -15.8 291.7 -15.8 L 291.7 -15.8 L 291.7 -15.8 Q 289 -15.8 287.3 -17.1 L 287.3 -17.1 L 287.3 -17.1 Q 285.6 -18.4 285.2 -19.7 L 285.2 -19.7 L 285.2 -19.7 Q 283.5 -17.9 280.7 -16.9 L 280.7 -16.9 L 280.7 -16.9 Q 277.9 -15.8 274.9 -15.8 L 274.9 -15.8 L 274.9 -15.8 Q 272 -15.8 269.4 -16.8 L 269.4 -16.8 L 269.4 -16.8 Q 266.8 -17.8 264.8 -19.9 L 264.8 -19.9 L 264.8 -19.9 Q 260.4 -24.6 260.4 -33.5 L 260.4 -33.5 L 260.4 -33.5 Q 260.4 -47.3 267.8 -55.6 L 267.8 -55.6 L 267.8 -55.6 Q 275.4 -64.1 288.8 -64.1 L 288.8 -64.1 L 288.8 -64.1 Q 298.1 -64.1 301.4 -59.3 L 301.4 -59.3 L 301.4 -59.3 Q 302.5 -57.8 302.5 -55.9 L 302.5 -55.9 L 302.5 -55.9 Q 302.5 -54.1 301.7 -52.6 L 301.7 -52.6 L 301.7 -52.6 Q 300.9 -51 299.6 -49.8 L 299.6 -49.8 L 299.6 -49.8 Q 296.7 -47 293 -47 L 293 -47 L 293 -47 Q 291.6 -47 290.2 -47.5 L 290.2 -47.5 L 290.2 -47.5 Q 290.5 -49.6 290.5 -52 L 290.5 -52 L 290.5 -52 Q 290.5 -54.4 290.3 -55.5 L 290.3 -55.5 L 290.3 -55.5 Q 290.1 -56.6 289.7 -57.5 L 289.7 -57.5 L 289.7 -57.5 Q 288.8 -59.4 286.8 -59.4 L 286.8 -59.4 L 286.8 -59.4 Q 284.9 -59.4 282.7 -57.3 L 282.7 -57.3 L 282.7 -57.3 Q 280.5 -55.2 278.8 -51.7 L 278.8 -51.7 L 278.8 -51.7 Q 275 -44 275 -34.7 L 275 -34.7 L 275 -34.7 Q 275 -30.4 276.7 -27.3 L 276.7 -27.3 L 276.7 -27.3 Q 278.5 -24 281.6 -24 L 281.6 -24 L 281.6 -24 Q 282.7 -24 283.7 -24.6 L 283.7 -24.6 L 283.7 -24.6 Q 284.7 -25.1 285.1 -25.6 L 285.1 -25.6 L 287.4 -39.4 Z M 307.7 -19.3 L 307.7 -19.3 L 307.7 -19.3 Q 306.1 -21.1 305.3 -23.9 L 305.3 -23.9 L 305.3 -23.9 Q 304.6 -26.7 304.6 -31.4 L 304.6 -31.4 L 304.6 -31.4 Q 304.6 -36 306.2 -40.2 L 306.2 -40.2 L 306.2 -40.2 Q 307.8 -44.4 310.7 -47.4 L 310.7 -47.4 L 310.7 -47.4 Q 316.6 -53.8 326.4 -53.8 L 326.4 -53.8 L 326.4 -53.8 Q 329.9 -53.8 332.5 -52.6 L 332.5 -52.6 L 344.3 -53.8 L 339.2 -26.9 L 339.2 -26.9 Q 339 -26 339 -24.5 L 339 -24.5 L 339 -24.5 Q 339 -23 339.9 -22 L 339.9 -22 L 339.9 -22 Q 340.8 -21.1 342.2 -20.9 L 342.2 -20.9 L 342.2 -20.9 Q 341.5 -18.6 339 -17.2 L 339 -17.2 L 339 -17.2 Q 336.5 -15.8 333.7 -15.8 L 333.7 -15.8 L 333.7 -15.8 Q 330.8 -15.8 328.9 -16.9 L 328.9 -16.9 L 328.9 -16.9 Q 327 -18 326.5 -19.8 L 326.5 -19.8 L 326.5 -19.8 Q 325.4 -18 323 -16.9 L 323 -16.9 L 323 -16.9 Q 320.7 -15.8 317.5 -15.8 L 317.5 -15.8 L 317.5 -15.8 Q 314.4 -15.8 311.9 -16.7 L 311.9 -16.7 L 311.9 -16.7 Q 309.3 -17.5 307.7 -19.3 Z M 322.2 -47.3 L 322.2 -47.3 L 322.2 -47.3 Q 321.4 -46 320.8 -43.9 L 320.8 -43.9 L 320.8 -43.9 Q 320.1 -41.8 318.9 -36.2 L 318.9 -36.2 L 318.9 -36.2 Q 317.8 -30.6 317.8 -26.6 L 317.8 -26.6 L 317.8 -26.6 Q 317.8 -22.6 318.4 -21.4 L 318.4 -21.4 L 318.4 -21.4 Q 319 -20.2 320.1 -20.2 L 320.1 -20.2 L 320.1 -20.2 Q 322.3 -20.2 324 -22.3 L 324 -22.3 L 324 -22.3 Q 325.6 -24.5 326.2 -28.2 L 326.2 -28.2 L 329.9 -48.4 L 329.9 -48.4 Q 328.4 -49.6 326.7 -49.6 L 326.7 -49.6 L 326.7 -49.6 Q 325 -49.6 324 -49.1 L 324 -49.1 L 324 -49.1 Q 323 -48.5 322.2 -47.3 Z M 364.5 -21 L 364.5 -21 L 364.5 -21 Q 362.4 -15.8 355.5 -15.8 L 355.5 -15.8 L 355.5 -15.8 Q 352.1 -15.8 349.9 -18.2 L 349.9 -18.2 L 349.9 -18.2 Q 348.1 -20.2 348.1 -22.5 L 348.1 -22.5 L 348.1 -22.5 Q 348.1 -27.7 350.5 -39 L 350.5 -39 L 355.5 -65.5 L 369.5 -66.9 L 362.8 -32 L 362.8 -32 Q 361.7 -26.9 361.7 -25.1 L 361.7 -25.1 L 361.7 -25.1 Q 361.7 -21.1 364.5 -21 Z M 386.9 -21 L 386.9 -21 L 386.9 -21 Q 384.7 -15.8 377.9 -15.8 L 377.9 -15.8 L 377.9 -15.8 Q 374.4 -15.8 372.2 -18.2 L 372.2 -18.2 L 372.2 -18.2 Q 370.4 -20.2 370.4 -22.5 L 370.4 -22.5 L 370.4 -22.5 Q 370.4 -27.7 372.8 -39 L 372.8 -39 L 377.9 -65.5 L 391.9 -66.9 L 385.2 -32 L 385.2 -32 Q 384 -26.9 384 -25.1 L 384 -25.1 L 384 -25.1 Q 384 -21.1 386.9 -21 Z M 420.7 -28.9 L 420.7 -28.9 L 420.7 -28.9 Q 422.4 -27.7 422.4 -25.1 L 422.4 -25.1 L 422.4 -25.1 Q 422.4 -22.5 421.1 -20.9 L 421.1 -20.9 L 421.1 -20.9 Q 419.8 -19.2 417.6 -18.1 L 417.6 -18.1 L 417.6 -18.1 Q 413.2 -15.8 408.5 -15.8 L 408.5 -15.8 L 408.5 -15.8 Q 403.7 -15.8 400.9 -16.9 L 400.9 -16.9 L 400.9 -16.9 Q 398.1 -17.9 396.2 -19.8 L 396.2 -19.8 L 396.2 -19.8 Q 392.6 -23.5 392.6 -30.2 L 392.6 -30.2 L 392.6 -30.2 Q 392.6 -40.6 398.2 -46.9 L 398.2 -46.9 L 398.2 -46.9 Q 404.3 -53.8 414.9 -53.8 L 414.9 -53.8 L 414.9 -53.8 Q 421.4 -53.8 424.7 -51 L 424.7 -51 L 424.7 -51 Q 427.1 -48.9 427.1 -45.6 L 427.1 -45.6 L 427.1 -45.6 Q 427.1 -33.4 406.1 -33.4 L 406.1 -33.4 L 406.1 -33.4 Q 405.8 -31.6 405.8 -30.1 L 405.8 -30.1 L 405.8 -30.1 Q 405.8 -26.9 407.2 -25.7 L 407.2 -25.7 L 407.2 -25.7 Q 408.7 -24.5 411.3 -24.5 L 411.3 -24.5 L 411.3 -24.5 Q 413.9 -24.5 416.7 -25.7 L 416.7 -25.7 L 416.7 -25.7 Q 419.5 -26.9 420.7 -28.9 Z M 406.6 -36.4 L 406.6 -36.4 L 406.6 -36.4 Q 411.5 -36.4 414.3 -39.4 L 414.3 -39.4 L 414.3 -39.4 Q 417.1 -42.3 417.1 -46.9 L 417.1 -46.9 L 417.1 -46.9 Q 417.1 -48.5 416.6 -49.4 L 416.6 -49.4 L 416.6 -49.4 Q 416 -50.3 414.8 -50.3 L 414.8 -50.3 L 414.8 -50.3 Q 413.6 -50.3 412.6 -49.8 L 412.6 -49.8 L 412.6 -49.8 Q 411.6 -49.4 410.6 -47.8 L 410.6 -47.8 L 410.6 -47.8 Q 408 -44.4 406.6 -36.4 Z M 451 -36.6 L 451 -36.6 L 451 -36.6 Q 453.5 -41 453.5 -45.5 L 453.5 -45.5 L 453.5 -45.5 Q 453.5 -48.5 451.4 -48.5 L 451.4 -48.5 L 451.4 -48.5 Q 449.7 -48.5 448 -45.6 L 448 -45.6 L 448 -45.6 Q 446.2 -42.8 445.6 -39.1 L 445.6 -39.1 L 442.1 -17.2 L 427.8 -15.8 L 434.8 -52.4 L 446.2 -53.8 L 445 -46.8 L 445 -46.8 Q 448.3 -53.8 455.9 -53.8 L 455.9 -53.8 L 455.9 -53.8 Q 459.9 -53.8 462.1 -51.7 L 462.1 -51.7 L 462.1 -51.7 Q 464.3 -49.6 464.3 -45.4 L 464.3 -45.4 L 464.3 -45.4 Q 464.3 -41.1 461.5 -38.5 L 461.5 -38.5 L 461.5 -38.5 Q 458.7 -35.8 453.9 -35.8 L 453.9 -35.8 L 453.9 -35.8 Q 451.9 -35.8 451 -36.6 Z M 487.3 -25 L 487.3 -25 L 487.3 -25 Q 483.7 -21.3 477.2 -21.3 L 477.2 -21.3 L 477.2 -21.3 Q 469 -21.3 467.2 -27.3 L 467.2 -27.3 L 467.2 -27.3 Q 466.7 -29.1 466.7 -31.1 L 466.7 -31.1 L 466.7 -31.1 Q 466.7 -33.1 467.1 -35.1 L 467.1 -35.1 L 470.3 -52.4 L 484.4 -53.8 L 480.6 -33.7 L 480.6 -33.7 Q 480.4 -32.8 480.2 -31.8 L 480.2 -31.8 L 480.2 -31.8 Q 480 -30.9 480 -29.9 L 480 -29.9 L 480 -29.9 Q 480 -28.9 480.4 -28.2 L 480.4 -28.2 L 480.4 -28.2 Q 480.7 -27.6 481.2 -27.1 L 481.2 -27.1 L 481.2 -27.1 Q 482 -26.6 483.5 -26.6 L 483.5 -26.6 L 483.5 -26.6 Q 485 -26.6 486.2 -28.4 L 486.2 -28.4 L 486.2 -28.4 Q 487.5 -30.2 488.1 -33.3 L 488.1 -33.3 L 491.9 -52.4 L 505.5 -53.8 L 500.4 -26.7 L 500.4 -26.7 Q 497.8 -13.4 492.6 -8.2 L 492.6 -8.2 L 492.6 -8.2 Q 489.9 -5.5 486.4 -4.4 L 486.4 -4.4 L 486.4 -4.4 Q 482.9 -3.3 478.4 -3.3 L 478.4 -3.3 L 478.4 -3.3 Q 471.2 -3.3 467 -5.6 L 467 -5.6 L 467 -5.6 Q 462.9 -7.9 462.9 -11.7 L 462.9 -11.7 L 462.9 -11.7 Q 462.9 -14.5 465 -16.1 L 465 -16.1 L 465 -16.1 Q 467.2 -17.8 470.5 -17.8 L 470.5 -17.8 L 470.5 -17.8 Q 473.4 -17.8 475.6 -16.5 L 475.6 -16.5 L 475.6 -16.5 Q 476.9 -15.8 477.5 -14.8 L 477.5 -14.8 L 477.5 -14.8 Q 475.9 -13.4 475.9 -11.1 L 475.9 -11.1 L 475.9 -11.1 Q 475.9 -8.1 478.7 -8.1 L 478.7 -8.1 L 478.7 -8.1 Q 483.2 -8.1 485.9 -18.6 L 485.9 -18.6 L 485.9 -18.6 Q 486.6 -21.7 487.3 -25 Z" fill="url(#editing-shiny-gradient)"></path></g></g><g filter="url(#editing-shiny2)"><g transform="translate(-2.4,106.8)"><path d="M 15.5 -18.3 L 0.4 -18.3 L 9.2 -63.9 L 24.4 -63.9 L 15.5 -18.3 Z M 75.6 -17 L 75.6 -17 L 75.6 -17 Q 67.2 -17 67.2 -23.5 L 67.2 -23.5 L 67.2 -23.5 Q 67.2 -26.3 68.4 -31.8 L 68.4 -31.8 L 68.4 -31.8 Q 69.6 -37.3 70 -39.5 L 70 -39.5 L 70 -39.5 Q 71 -44.5 71 -46.1 L 71 -46.1 L 71 -46.1 Q 71 -49.6 68.4 -49.6 L 68.4 -49.6 L 68.4 -49.6 Q 66.7 -49.6 65 -47.2 L 65 -47.2 L 65 -47.2 Q 63.3 -44.8 62.6 -40.1 L 62.6 -40.1 L 58.3 -18.3 L 44.9 -17 L 48.6 -35.7 L 48.6 -35.7 Q 49.2 -38.8 49.8 -42.4 L 49.8 -42.4 L 49.8 -42.4 Q 50.3 -45.9 50.3 -46.4 L 50.3 -46.4 L 50.3 -46.4 Q 50.3 -49.6 48 -49.6 L 48 -49.6 L 48 -49.6 Q 46.4 -49.6 44.6 -47.3 L 44.6 -47.3 L 44.6 -47.3 Q 42.9 -44.9 42 -40.1 L 42 -40.1 L 37.7 -18.3 L 24.1 -17 L 31.4 -53.5 L 42.6 -54.9 L 41.5 -47.9 L 41.5 -47.9 Q 43.3 -51.7 46.6 -53.3 L 46.6 -53.3 L 46.6 -53.3 Q 49.9 -54.9 55.1 -54.9 L 55.1 -54.9 L 55.1 -54.9 Q 58 -54.9 60 -53.5 L 60 -53.5 L 60 -53.5 Q 61.9 -52 62.5 -49.7 L 62.5 -49.7 L 62.5 -49.7 Q 63.7 -52.1 66.7 -53.5 L 66.7 -53.5 L 66.7 -53.5 Q 69.7 -54.9 73.4 -54.9 L 73.4 -54.9 L 73.4 -54.9 Q 77.1 -54.9 78.9 -54.1 L 78.9 -54.1 L 78.9 -54.1 Q 80.7 -53.3 81.8 -52 L 81.8 -52 L 81.8 -52 Q 83.7 -49.6 83.7 -45.2 L 83.7 -45.2 L 83.7 -45.2 Q 83.7 -40.8 81.8 -31.8 L 81.8 -31.8 L 81.8 -31.8 Q 80.9 -27.4 80.9 -25.8 L 80.9 -25.8 L 80.9 -25.8 Q 80.9 -24.1 81.8 -23.2 L 81.8 -23.2 L 81.8 -23.2 Q 82.7 -22.2 84.1 -22.1 L 84.1 -22.1 L 84.1 -22.1 Q 83.4 -19.7 81 -18.3 L 81 -18.3 L 81 -18.3 Q 78.7 -17 75.6 -17 Z M 92.4 -20.4 L 92.4 -20.4 L 92.4 -20.4 Q 90.8 -22.2 90.1 -25 L 90.1 -25 L 90.1 -25 Q 89.4 -27.9 89.4 -32.5 L 89.4 -32.5 L 89.4 -32.5 Q 89.4 -37.1 90.9 -41.3 L 90.9 -41.3 L 90.9 -41.3 Q 92.5 -45.5 95.4 -48.6 L 95.4 -48.6 L 95.4 -48.6 Q 101.4 -54.9 111.2 -54.9 L 111.2 -54.9 L 111.2 -54.9 Q 114.7 -54.9 117.2 -53.7 L 117.2 -53.7 L 129 -54.9 L 123.9 -28 L 123.9 -28 Q 123.7 -27.2 123.7 -25.7 L 123.7 -25.7 L 123.7 -25.7 Q 123.7 -24.1 124.7 -23.2 L 124.7 -23.2 L 124.7 -23.2 Q 125.6 -22.2 127 -22.1 L 127 -22.1 L 127 -22.1 Q 126.3 -19.7 123.8 -18.3 L 123.8 -18.3 L 123.8 -18.3 Q 121.2 -17 118.4 -17 L 118.4 -17 L 118.4 -17 Q 115.6 -17 113.7 -18 L 113.7 -18 L 113.7 -18 Q 111.8 -19.1 111.2 -20.9 L 111.2 -20.9 L 111.2 -20.9 Q 110.1 -19.2 107.8 -18.1 L 107.8 -18.1 L 107.8 -18.1 Q 105.4 -17 102.3 -17 L 102.3 -17 L 102.3 -17 Q 99.2 -17 96.6 -17.8 L 96.6 -17.8 L 96.6 -17.8 Q 94 -18.6 92.4 -20.4 Z M 107 -48.4 L 107 -48.4 L 107 -48.4 Q 106.2 -47.2 105.5 -45.1 L 105.5 -45.1 L 105.5 -45.1 Q 104.8 -43 103.7 -37.4 L 103.7 -37.4 L 103.7 -37.4 Q 102.5 -31.7 102.5 -27.7 L 102.5 -27.7 L 102.5 -27.7 Q 102.5 -23.7 103.2 -22.6 L 103.2 -22.6 L 103.2 -22.6 Q 103.8 -21.4 104.9 -21.4 L 104.9 -21.4 L 104.9 -21.4 Q 107.1 -21.4 108.7 -23.5 L 108.7 -23.5 L 108.7 -23.5 Q 110.3 -25.6 111 -29.3 L 111 -29.3 L 114.6 -49.5 L 114.6 -49.5 Q 113.2 -50.8 111.5 -50.8 L 111.5 -50.8 L 111.5 -50.8 Q 109.8 -50.8 108.8 -50.2 L 108.8 -50.2 L 108.8 -50.2 Q 107.8 -49.7 107 -48.4 Z M 137.4 -47.2 L 137.4 -47.2 L 137.4 -47.2 Q 139.7 -50.5 143.3 -52.7 L 143.3 -52.7 L 143.3 -52.7 Q 146.8 -54.9 151.2 -54.9 L 151.2 -54.9 L 151.2 -54.9 Q 155.5 -54.9 157.6 -53.5 L 157.6 -53.5 L 171.1 -54.9 L 166.4 -28.4 L 166.4 -28.4 Q 164 -14.9 158.9 -9.6 L 158.9 -9.6 L 158.9 -9.6 Q 154 -4.5 144.5 -4.5 L 144.5 -4.5 L 144.5 -4.5 Q 137.2 -4.5 133.1 -6.8 L 133.1 -6.8 L 133.1 -6.8 Q 129 -9.1 129 -12.9 L 129 -12.9 L 129 -12.9 Q 129 -15.7 131.1 -17.3 L 131.1 -17.3 L 131.1 -17.3 Q 133.2 -19 136.6 -19 L 136.6 -19 L 136.6 -19 Q 139.4 -19 141.7 -17.7 L 141.7 -17.7 L 141.7 -17.7 Q 143 -17 143.6 -16 L 143.6 -16 L 143.6 -16 Q 142 -14.6 142 -12.3 L 142 -12.3 L 142 -12.3 Q 142 -9.4 144.8 -9.4 L 144.8 -9.4 L 144.8 -9.4 Q 149.4 -9.4 152 -20.3 L 152 -20.3 L 152 -20.3 Q 152.8 -23.2 153.4 -26.2 L 153.4 -26.2 L 153.4 -26.2 Q 150.3 -22.4 143.2 -22.4 L 143.2 -22.4 L 143.2 -22.4 Q 138.3 -22.4 135.5 -24.8 L 135.5 -24.8 L 135.5 -24.8 Q 132.7 -27.1 132.7 -32.6 L 132.7 -32.6 L 132.7 -32.6 Q 132.7 -36.1 133.9 -40 L 133.9 -40 L 133.9 -40 Q 135 -43.9 137.4 -47.2 Z M 146.3 -32.4 L 146.3 -32.4 L 146.3 -32.4 Q 146.3 -27.7 148.8 -27.7 L 148.8 -27.7 L 148.8 -27.7 Q 150.4 -27.7 152 -29.5 L 152 -29.5 L 152 -29.5 Q 153.3 -31 153.7 -33.1 L 153.7 -33.1 L 157.3 -50.8 L 157.3 -50.8 Q 156.9 -50.9 156.6 -51.1 L 156.6 -51.1 L 156.6 -51.1 Q 155.9 -51.3 155 -51.3 L 155 -51.3 L 155 -51.3 Q 150.8 -51.3 148.3 -44.4 L 148.3 -44.4 L 148.3 -44.4 Q 146.3 -39 146.3 -32.4 Z M 201.8 -30 L 201.8 -30 L 201.8 -30 Q 203.5 -28.8 203.5 -26.2 L 203.5 -26.2 L 203.5 -26.2 Q 203.5 -23.7 202.2 -22 L 202.2 -22 L 202.2 -22 Q 200.9 -20.3 198.7 -19.2 L 198.7 -19.2 L 198.7 -19.2 Q 194.3 -17 189.5 -17 L 189.5 -17 L 189.5 -17 Q 184.8 -17 182 -18 L 182 -18 L 182 -18 Q 179.2 -19 177.3 -21 L 177.3 -21 L 177.3 -21 Q 173.7 -24.6 173.7 -31.3 L 173.7 -31.3 L 173.7 -31.3 Q 173.7 -41.7 179.3 -48.1 L 179.3 -48.1 L 179.3 -48.1 Q 185.4 -54.9 196 -54.9 L 196 -54.9 L 196 -54.9 Q 202.5 -54.9 205.8 -52.2 L 205.8 -52.2 L 205.8 -52.2 Q 208.2 -50.1 208.2 -46.7 L 208.2 -46.7 L 208.2 -46.7 Q 208.2 -34.6 187.2 -34.6 L 187.2 -34.6 L 187.2 -34.6 Q 186.9 -32.8 186.9 -31.2 L 186.9 -31.2 L 186.9 -31.2 Q 186.9 -28.1 188.3 -26.9 L 188.3 -26.9 L 188.3 -26.9 Q 189.8 -25.7 192.4 -25.7 L 192.4 -25.7 L 192.4 -25.7 Q 195 -25.7 197.8 -26.9 L 197.8 -26.9 L 197.8 -26.9 Q 200.6 -28.1 201.8 -30 Z M 187.7 -37.5 L 187.7 -37.5 L 187.7 -37.5 Q 192.6 -37.5 195.4 -40.6 L 195.4 -40.6 L 195.4 -40.6 Q 198.2 -43.5 198.2 -48.1 L 198.2 -48.1 L 198.2 -48.1 Q 198.2 -49.7 197.7 -50.5 L 197.7 -50.5 L 197.7 -50.5 Q 197.1 -51.4 195.9 -51.4 L 195.9 -51.4 L 195.9 -51.4 Q 194.7 -51.4 193.7 -50.9 L 193.7 -50.9 L 193.7 -50.9 Q 192.7 -50.5 191.7 -49 L 191.7 -49 L 191.7 -49 Q 189.1 -45.5 187.7 -37.5 Z M 231.2 -42.6 L 231.2 -42.6 L 231.2 -42.6 Q 232.1 -45.1 232.1 -47.3 L 232.1 -47.3 L 232.1 -47.3 Q 232.1 -51.4 228.8 -51.4 L 228.8 -51.4 L 228.8 -51.4 Q 227.1 -51.4 225.7 -49.8 L 225.7 -49.8 L 225.7 -49.8 Q 224.3 -48.3 224.3 -46.4 L 224.3 -46.4 L 224.3 -46.4 Q 224.3 -45 225.3 -43.9 L 225.3 -43.9 L 225.3 -43.9 Q 226.9 -42.4 231 -39.9 L 231 -39.9 L 231 -39.9 Q 235.1 -37.4 236.6 -35.4 L 236.6 -35.4 L 236.6 -35.4 Q 238.2 -33.3 238.2 -30.5 L 238.2 -30.5 L 238.2 -30.5 Q 238.2 -27.7 236.8 -25.2 L 236.8 -25.2 L 236.8 -25.2 Q 235.5 -22.6 233.1 -20.8 L 233.1 -20.8 L 233.1 -20.8 Q 227.9 -17 219.6 -17 L 219.6 -17 L 219.6 -17 Q 215.1 -17 211.7 -19.3 L 211.7 -19.3 L 211.7 -19.3 Q 208.2 -21.6 208.2 -24.3 L 208.2 -24.3 L 208.2 -24.3 Q 208.2 -27 210.2 -28.6 L 210.2 -28.6 L 210.2 -28.6 Q 212.2 -30.1 215.1 -30.1 L 215.1 -30.1 L 215.1 -30.1 Q 218 -30.1 219.8 -29 L 219.8 -29 L 219.8 -29 Q 218.9 -26.8 218.9 -25.2 L 218.9 -25.2 L 218.9 -25.2 Q 218.9 -20.7 222.7 -20.7 L 222.7 -20.7 L 222.7 -20.7 Q 224.4 -20.7 225.5 -21.7 L 225.5 -21.7 L 225.5 -21.7 Q 226.6 -22.8 226.6 -24.6 L 226.6 -24.6 L 226.6 -24.6 Q 226.6 -28.1 220.7 -31.8 L 220.7 -31.8 L 220.7 -31.8 Q 215.8 -35 214.7 -36.2 L 214.7 -36.2 L 214.7 -36.2 Q 212.9 -38.4 212.9 -41.2 L 212.9 -41.2 L 212.9 -41.2 Q 212.9 -43.9 214.2 -46.6 L 214.2 -46.6 L 214.2 -46.6 Q 215.5 -49.2 217.9 -51.1 L 217.9 -51.1 L 217.9 -51.1 Q 222.9 -54.9 231.7 -54.9 L 231.7 -54.9 L 231.7 -54.9 Q 236.2 -54.9 238.8 -53.1 L 238.8 -53.1 L 238.8 -53.1 Q 241.5 -51.3 241.5 -48.3 L 241.5 -48.3 L 241.5 -48.3 Q 241.5 -45.3 239.7 -43.5 L 239.7 -43.5 L 239.7 -43.5 Q 237.8 -41.8 234.5 -41.8 L 234.5 -41.8 L 234.5 -41.8 Q 232.3 -41.8 231.2 -42.6 Z M 286.2 -40.6 L 300.1 -41.8 L 300.1 -41.8 Q 295.2 -30.9 295.2 -18.3 L 295.2 -18.3 L 295.2 -18.3 Q 293.3 -17 290.6 -17 L 290.6 -17 L 290.6 -17 Q 287.9 -17 286.1 -18.2 L 286.1 -18.2 L 286.1 -18.2 Q 284.4 -19.5 284.1 -20.8 L 284.1 -20.8 L 284.1 -20.8 Q 282.4 -19 279.6 -18 L 279.6 -18 L 279.6 -18 Q 276.8 -17 273.8 -17 L 273.8 -17 L 273.8 -17 Q 270.8 -17 268.2 -17.9 L 268.2 -17.9 L 268.2 -17.9 Q 265.6 -18.9 263.6 -21 L 263.6 -21 L 263.6 -21 Q 259.2 -25.7 259.2 -34.6 L 259.2 -34.6 L 259.2 -34.6 Q 259.2 -48.4 266.6 -56.7 L 266.6 -56.7 L 266.6 -56.7 Q 274.2 -65.3 287.7 -65.3 L 287.7 -65.3 L 287.7 -65.3 Q 297 -65.3 300.3 -60.4 L 300.3 -60.4 L 300.3 -60.4 Q 301.3 -58.9 301.3 -57.1 L 301.3 -57.1 L 301.3 -57.1 Q 301.3 -55.3 300.5 -53.7 L 300.5 -53.7 L 300.5 -53.7 Q 299.7 -52.2 298.5 -50.9 L 298.5 -50.9 L 298.5 -50.9 Q 295.5 -48.2 291.9 -48.2 L 291.9 -48.2 L 291.9 -48.2 Q 290.4 -48.2 289 -48.6 L 289 -48.6 L 289 -48.6 Q 289.3 -50.7 289.3 -53.1 L 289.3 -53.1 L 289.3 -53.1 Q 289.3 -55.5 289.1 -56.6 L 289.1 -56.6 L 289.1 -56.6 Q 289 -57.7 288.6 -58.6 L 288.6 -58.6 L 288.6 -58.6 Q 287.7 -60.5 285.7 -60.5 L 285.7 -60.5 L 285.7 -60.5 Q 283.7 -60.5 281.6 -58.4 L 281.6 -58.4 L 281.6 -58.4 Q 279.4 -56.3 277.7 -52.8 L 277.7 -52.8 L 277.7 -52.8 Q 273.9 -45.1 273.9 -35.8 L 273.9 -35.8 L 273.9 -35.8 Q 273.9 -31.5 275.5 -28.5 L 275.5 -28.5 L 275.5 -28.5 Q 277.3 -25.2 280.5 -25.2 L 280.5 -25.2 L 280.5 -25.2 Q 281.6 -25.2 282.6 -25.7 L 282.6 -25.7 L 282.6 -25.7 Q 283.6 -26.3 284 -26.7 L 284 -26.7 L 286.2 -40.6 Z M 306.5 -20.4 L 306.5 -20.4 L 306.5 -20.4 Q 304.9 -22.2 304.2 -25 L 304.2 -25 L 304.2 -25 Q 303.5 -27.9 303.5 -32.5 L 303.5 -32.5 L 303.5 -32.5 Q 303.5 -37.1 305.1 -41.3 L 305.1 -41.3 L 305.1 -41.3 Q 306.6 -45.5 309.5 -48.6 L 309.5 -48.6 L 309.5 -48.6 Q 315.5 -54.9 325.3 -54.9 L 325.3 -54.9 L 325.3 -54.9 Q 328.8 -54.9 331.3 -53.7 L 331.3 -53.7 L 343.1 -54.9 L 338 -28 L 338 -28 Q 337.8 -27.2 337.8 -25.7 L 337.8 -25.7 L 337.8 -25.7 Q 337.8 -24.1 338.8 -23.2 L 338.8 -23.2 L 338.8 -23.2 Q 339.7 -22.2 341.1 -22.1 L 341.1 -22.1 L 341.1 -22.1 Q 340.4 -19.7 337.9 -18.3 L 337.9 -18.3 L 337.9 -18.3 Q 335.3 -17 332.5 -17 L 332.5 -17 L 332.5 -17 Q 329.7 -17 327.8 -18 L 327.8 -18 L 327.8 -18 Q 325.9 -19.1 325.3 -20.9 L 325.3 -20.9 L 325.3 -20.9 Q 324.2 -19.2 321.9 -18.1 L 321.9 -18.1 L 321.9 -18.1 Q 319.5 -17 316.4 -17 L 316.4 -17 L 316.4 -17 Q 313.3 -17 310.7 -17.8 L 310.7 -17.8 L 310.7 -17.8 Q 308.1 -18.6 306.5 -20.4 Z M 321.1 -48.4 L 321.1 -48.4 L 321.1 -48.4 Q 320.3 -47.2 319.6 -45.1 L 319.6 -45.1 L 319.6 -45.1 Q 318.9 -43 317.8 -37.4 L 317.8 -37.4 L 317.8 -37.4 Q 316.6 -31.7 316.6 -27.7 L 316.6 -27.7 L 316.6 -27.7 Q 316.6 -23.7 317.3 -22.6 L 317.3 -22.6 L 317.3 -22.6 Q 317.9 -21.4 319 -21.4 L 319 -21.4 L 319 -21.4 Q 321.2 -21.4 322.8 -23.5 L 322.8 -23.5 L 322.8 -23.5 Q 324.4 -25.6 325.1 -29.3 L 325.1 -29.3 L 328.7 -49.5 L 328.7 -49.5 Q 327.3 -50.8 325.6 -50.8 L 325.6 -50.8 L 325.6 -50.8 Q 323.9 -50.8 322.9 -50.2 L 322.9 -50.2 L 322.9 -50.2 Q 321.9 -49.7 321.1 -48.4 Z M 363.4 -22.1 L 363.4 -22.1 L 363.4 -22.1 Q 361.2 -17 354.4 -17 L 354.4 -17 L 354.4 -17 Q 350.9 -17 348.7 -19.4 L 348.7 -19.4 L 348.7 -19.4 Q 346.9 -21.4 346.9 -23.7 L 346.9 -23.7 L 346.9 -23.7 Q 346.9 -28.8 349.4 -40.1 L 349.4 -40.1 L 354.4 -66.6 L 368.4 -68 L 361.7 -33.1 L 361.7 -33.1 Q 360.5 -28 360.5 -26.2 L 360.5 -26.2 L 360.5 -26.2 Q 360.5 -22.3 363.4 -22.1 Z M 385.7 -22.1 L 385.7 -22.1 L 385.7 -22.1 Q 383.6 -17 376.7 -17 L 376.7 -17 L 376.7 -17 Q 373.3 -17 371.1 -19.4 L 371.1 -19.4 L 371.1 -19.4 Q 369.3 -21.4 369.3 -23.7 L 369.3 -23.7 L 369.3 -23.7 Q 369.3 -28.8 371.7 -40.1 L 371.7 -40.1 L 376.7 -66.6 L 390.8 -68 L 384.1 -33.1 L 384.1 -33.1 Q 382.9 -28 382.9 -26.2 L 382.9 -26.2 L 382.9 -26.2 Q 382.9 -22.3 385.7 -22.1 Z M 419.5 -30 L 419.5 -30 L 419.5 -30 Q 421.3 -28.8 421.3 -26.2 L 421.3 -26.2 L 421.3 -26.2 Q 421.3 -23.7 419.9 -22 L 419.9 -22 L 419.9 -22 Q 418.6 -20.3 416.5 -19.2 L 416.5 -19.2 L 416.5 -19.2 Q 412.1 -17 407.3 -17 L 407.3 -17 L 407.3 -17 Q 402.6 -17 399.8 -18 L 399.8 -18 L 399.8 -18 Q 397 -19 395.1 -21 L 395.1 -21 L 395.1 -21 Q 391.4 -24.6 391.4 -31.3 L 391.4 -31.3 L 391.4 -31.3 Q 391.4 -41.7 397.1 -48.1 L 397.1 -48.1 L 397.1 -48.1 Q 403.2 -54.9 413.7 -54.9 L 413.7 -54.9 L 413.7 -54.9 Q 420.3 -54.9 423.5 -52.2 L 423.5 -52.2 L 423.5 -52.2 Q 425.9 -50.1 425.9 -46.7 L 425.9 -46.7 L 425.9 -46.7 Q 425.9 -34.6 405 -34.6 L 405 -34.6 L 405 -34.6 Q 404.7 -32.8 404.7 -31.2 L 404.7 -31.2 L 404.7 -31.2 Q 404.7 -28.1 406.1 -26.9 L 406.1 -26.9 L 406.1 -26.9 Q 407.5 -25.7 410.1 -25.7 L 410.1 -25.7 L 410.1 -25.7 Q 412.8 -25.7 415.6 -26.9 L 415.6 -26.9 L 415.6 -26.9 Q 418.4 -28.1 419.5 -30 Z M 405.4 -37.5 L 405.4 -37.5 L 405.4 -37.5 Q 410.3 -37.5 413.2 -40.6 L 413.2 -40.6 L 413.2 -40.6 Q 416 -43.5 416 -48.1 L 416 -48.1 L 416 -48.1 Q 416 -49.7 415.4 -50.5 L 415.4 -50.5 L 415.4 -50.5 Q 414.8 -51.4 413.6 -51.4 L 413.6 -51.4 L 413.6 -51.4 Q 412.5 -51.4 411.5 -50.9 L 411.5 -50.9 L 411.5 -50.9 Q 410.5 -50.5 409.4 -49 L 409.4 -49 L 409.4 -49 Q 406.9 -45.5 405.4 -37.5 Z M 449.9 -37.7 L 449.9 -37.7 L 449.9 -37.7 Q 452.4 -42.2 452.4 -46.6 L 452.4 -46.6 L 452.4 -46.6 Q 452.4 -49.6 450.2 -49.6 L 450.2 -49.6 L 450.2 -49.6 Q 448.6 -49.6 446.8 -46.8 L 446.8 -46.8 L 446.8 -46.8 Q 445.1 -43.9 444.5 -40.3 L 444.5 -40.3 L 440.9 -18.3 L 426.6 -17 L 433.7 -53.5 L 445.1 -54.9 L 443.8 -47.9 L 443.8 -47.9 Q 447.2 -54.9 454.8 -54.9 L 454.8 -54.9 L 454.8 -54.9 Q 458.8 -54.9 460.9 -52.8 L 460.9 -52.8 L 460.9 -52.8 Q 463.1 -50.8 463.1 -46.5 L 463.1 -46.5 L 463.1 -46.5 Q 463.1 -42.3 460.3 -39.6 L 460.3 -39.6 L 460.3 -39.6 Q 457.5 -36.9 452.8 -36.9 L 452.8 -36.9 L 452.8 -36.9 Q 450.7 -36.9 449.9 -37.7 Z M 486.2 -26.1 L 486.2 -26.1 L 486.2 -26.1 Q 482.6 -22.4 476 -22.4 L 476 -22.4 L 476 -22.4 Q 467.8 -22.4 466.1 -28.4 L 466.1 -28.4 L 466.1 -28.4 Q 465.5 -30.2 465.5 -32.2 L 465.5 -32.2 L 465.5 -32.2 Q 465.5 -34.2 466 -36.3 L 466 -36.3 L 469.2 -53.5 L 483.2 -54.9 L 479.4 -34.8 L 479.4 -34.8 Q 479.3 -33.9 479.1 -33 L 479.1 -33 L 479.1 -33 Q 478.9 -32 478.9 -31 L 478.9 -31 L 478.9 -31 Q 478.9 -30 479.2 -29.4 L 479.2 -29.4 L 479.2 -29.4 Q 479.6 -28.7 480 -28.3 L 480 -28.3 L 480 -28.3 Q 480.9 -27.7 482.3 -27.7 L 482.3 -27.7 L 482.3 -27.7 Q 483.8 -27.7 485.1 -29.5 L 485.1 -29.5 L 485.1 -29.5 Q 486.4 -31.3 487 -34.4 L 487 -34.4 L 490.8 -53.5 L 504.4 -54.9 L 499.2 -27.8 L 499.2 -27.8 Q 496.7 -14.5 491.4 -9.3 L 491.4 -9.3 L 491.4 -9.3 Q 488.7 -6.6 485.2 -5.5 L 485.2 -5.5 L 485.2 -5.5 Q 481.8 -4.5 477.3 -4.5 L 477.3 -4.5 L 477.3 -4.5 Q 470 -4.5 465.9 -6.8 L 465.9 -6.8 L 465.9 -6.8 Q 461.8 -9 461.8 -12.8 L 461.8 -12.8 L 461.8 -12.8 Q 461.8 -15.7 463.9 -17.3 L 463.9 -17.3 L 463.9 -17.3 Q 466 -18.9 469.3 -18.9 L 469.3 -18.9 L 469.3 -18.9 Q 472.2 -18.9 474.4 -17.7 L 474.4 -17.7 L 474.4 -17.7 Q 475.8 -16.9 476.4 -15.9 L 476.4 -15.9 L 476.4 -15.9 Q 474.8 -14.5 474.8 -12.3 L 474.8 -12.3 L 474.8 -12.3 Q 474.8 -9.2 477.6 -9.2 L 477.6 -9.2 L 477.6 -9.2 Q 482.1 -9.2 484.7 -19.7 L 484.7 -19.7 L 484.7 -19.7 Q 485.5 -22.8 486.2 -26.1 Z" fill="url(#editing-shiny-gradient2)"></path></g></g><style>text {
  font-size: 64px;
  font-family: Arial Black;
  dominant-baseline: central;
  text-anchor: middle;
}</style></svg>